<!DOCTYPE svg PUBLIC "-//W3C//DTD SVG 1.1//EN" "http://www.w3.org/Graphics/SVG/1.1/DTD/svg11.dtd">
<!-- Uploaded to: SVG Repo, www.svgrepo.com, Transformed by: SVG Repo Mixer Tools -->
<svg fill="#ffffff" width="800px" height="800px" viewBox="0 0 32 32" version="1.1" xmlns="http://www.w3.org/2000/svg" stroke="#ffffff">
<g id="SVGRepo_bgCarrier" stroke-width="0"/>
<g id="SVGRepo_tracerCarrier" stroke-linecap="round" stroke-linejoin="round"/>
<g id="SVGRepo_iconCarrier"> <title>alt-left-align</title> <path d="M0 26.016q0 2.496 1.76 4.224t4.256 1.76h20q2.464 0 4.224-1.76t1.76-4.224v-20q0-2.496-1.76-4.256t-4.224-1.76h-20q-2.496 0-4.256 1.76t-1.76 4.256v20zM4 26.016v-20q0-0.832 0.576-1.408t1.44-0.608h20q0.8 0 1.408 0.608t0.576 1.408v20q0 0.832-0.576 1.408t-1.408 0.576h-20q-0.832 0-1.44-0.576t-0.576-1.408zM8 22.016h6.016v-2.016h-6.016v2.016zM8 18.016h10.016v-2.016h-10.016v2.016zM8 14.016h8v-2.016h-8v2.016zM8 10.016h12v-2.016h-12v2.016z"/> </g>
</svg>